<svg width="19" height="16" viewBox="0 0 19 16" fill="none" xmlns="http://www.w3.org/2000/svg">
<path d="M16.359 4.05945C16.359 4.23523 16.359 4.37585 16.359 4.55164C16.359 9.43835 12.6676 15.0282 5.88245 15.0282C3.77308 15.0282 1.83949 14.4305 0.222298 13.3759C0.503548 13.411 0.784798 13.4462 1.1012 13.4462C2.82386 13.4462 4.40589 12.8485 5.67152 11.8641C4.05433 11.829 2.68324 10.7743 2.2262 9.29773C2.4723 9.33289 2.68324 9.36804 2.92933 9.36804C3.24574 9.36804 3.5973 9.29773 3.87855 9.22742C2.19105 8.87585 0.925423 7.39929 0.925423 5.60632V5.57117C1.41761 5.85242 2.01527 5.99304 2.61292 6.0282C1.59339 5.36023 0.960579 4.23523 0.960579 2.9696C0.960579 2.26648 1.13636 1.63367 1.45277 1.10632C3.28089 3.32117 6.02308 4.79773 9.08167 4.97351C9.01136 4.69226 8.9762 4.41101 8.9762 4.12976C8.9762 2.0907 10.6285 0.438354 12.6676 0.438354C13.7223 0.438354 14.6715 0.860229 15.3746 1.59851C16.1832 1.42273 16.9918 1.10632 17.695 0.684448C17.4137 1.56335 16.8512 2.26648 16.0778 2.72351C16.816 2.6532 17.5543 2.44226 18.1871 2.16101C17.695 2.89929 17.0621 3.5321 16.359 4.05945Z" fill="#292F36"/>
</svg>
